<svg id="vector" xmlns="http://www.w3.org/2000/svg" width="108" height="108" viewBox="0 0 24 24"><path fill="#F0F0F8" d="M12,4.5C7,4.5 2.73,7.61 1,12c1.73,4.39 6,7.5 11,7.5s9.27,-3.11 11,-7.5c-1.73,-4.39 -6,-7.5 -11,-7.5z   M12,17c-2.76,0 -5,-2.24 -5,-5s2.24,-5 5,-5 5,2.24 5,5 -2.24,5 -5,5z" id="path_0"/><g transform="translate(3.6, 3.6) scale(0.7, 0.7)" id="g_0"><path fill="#F0F0F8" d="M15.81,12.74l-0.82,-0.63v-0.22l0.8,-0.63c0.16,-0.12 0.2,-0.34 0.1,-0.51l-0.85,-1.48c-0.07,-0.13 -0.21,-0.2 -0.35,-0.2 -0.05,0 -0.1,0.01 -0.15,0.03l-0.95,0.38c-0.08,-0.05 -0.11,-0.07 -0.19,-0.11l-0.15,-1.01c-0.03,-0.21 -0.2,-0.36 -0.4,-0.36h-1.71c-0.2,0 -0.37,0.15 -0.4,0.34l-0.14,1.01c-0.03,0.02 -0.07,0.03 -0.1,0.05l-0.09,0.06 -0.95,-0.38c-0.05,-0.02 -0.1,-0.03 -0.15,-0.03 -0.14,0 -0.27,0.07 -0.35,0.2l-0.85,1.48c-0.1,0.17 -0.06,0.39 0.1,0.51l0.8,0.63v0.23l-0.8,0.63c-0.16,0.12 -0.2,0.34 -0.1,0.51l0.85,1.48c0.07,0.13 0.21,0.2 0.35,0.2 0.05,0 0.1,-0.01 0.15,-0.03l0.95,-0.37c0.08,0.05 0.12,0.07 0.2,0.11l0.15,1.01c0.03,0.2 0.2,0.34 0.4,0.34h1.71c0.2,0 0.37,-0.15 0.4,-0.34l0.15,-1.01c0.03,-0.02 0.07,-0.03 0.1,-0.05l0.09,-0.06 0.95,0.38c0.05,0.02 0.1,0.03 0.15,0.03 0.14,0 0.27,-0.07 0.35,-0.2l0.85,-1.48c0.1,-0.17 0.06,-0.39 -0.1,-0.51     M12,13.5c-0.83,0 -1.5,-0.67 -1.5,-1.5s0.67,-1.5 1.5,-1.5 1.5,0.67 1.5,1.5 -0.67,1.5 -1.5,1.5z   "/></g></svg>