<svg id="vector" xmlns="http://www.w3.org/2000/svg" width="108" height="108" viewBox="0 0 24 24">
    <path fill="#F0F0F8"
        d="M12,6.5c3.79,0 7.17,2.13 8.82,5.5 -1.65,3.37 -5.02,5.5 -8.82,5.5S4.83,15.37 3.18,12C4.83,8.63 8.21,6.5 12,6.5m0,-2C7,4.5 2.73,7.61 1,12c1.73,4.39 6,7.5 11,7.5s9.27,-3.11 11,-7.5c-1.73,-4.39 -6,-7.5 -11,-7.5z"
        id="path_0" />
    <g transform="translate(7.9, 7.9) scale(0.34, 0.34)" id="g_0">
        <path fill="#F0F0F8"
            d="M13,13v8h8v-8h-8zM3,21h8v-8L3,13v8zM3,3v8h8L11,3L3,3zM16.66,1.69L11,7.34 16.66,13l5.66,-5.66 -5.66,-5.65z" />
    </g>
</svg>